<svg width="411" height="116" viewBox="0 0 411 116" fill="none" xmlns="http://www.w3.org/2000/svg">
<rect x="1" y="1" width="409" height="114" fill="#002518" stroke="white" stroke-width="2"/>
<path d="M89.2578 28.4219H106.562V86H95.3516V47.0547C95.3516 45.9349 95.3646 44.3724 95.3906 42.3672C95.4167 40.3359 95.4297 38.7734 95.4297 37.6797L84.5312 86H72.8516L62.0312 37.6797C62.0312 38.7734 62.0443 40.3359 62.0703 42.3672C62.0964 44.3724 62.1094 45.9349 62.1094 47.0547V86H50.8984V28.4219H68.3984L78.8672 73.6953L89.2578 28.4219ZM140.312 65.2969C139.609 65.7396 138.893 66.1042 138.164 66.3906C137.461 66.651 136.484 66.8984 135.234 67.1328L132.734 67.6016C130.391 68.0182 128.711 68.526 127.695 69.125C125.977 70.1406 125.117 71.7161 125.117 73.8516C125.117 75.7526 125.638 77.1328 126.68 77.9922C127.747 78.8255 129.036 79.2422 130.547 79.2422C132.943 79.2422 135.143 78.5391 137.148 77.1328C139.18 75.7266 140.234 73.1615 140.312 69.4375V65.2969ZM133.555 60.1016C135.612 59.8411 137.083 59.5156 137.969 59.125C139.557 58.4479 140.352 57.3932 140.352 55.9609C140.352 54.2161 139.74 53.0182 138.516 52.3672C137.318 51.6901 135.547 51.3516 133.203 51.3516C130.573 51.3516 128.711 52.0026 127.617 53.3047C126.836 54.2682 126.315 55.5703 126.055 57.2109H115.312C115.547 53.487 116.589 50.4271 118.438 48.0312C121.38 44.2812 126.432 42.4062 133.594 42.4062C138.255 42.4062 142.396 43.3307 146.016 45.1797C149.635 47.0286 151.445 50.5182 151.445 55.6484V75.1797C151.445 76.5339 151.471 78.1745 151.523 80.1016C151.602 81.5599 151.823 82.5495 152.188 83.0703C152.552 83.5911 153.099 84.0208 153.828 84.3594V86H141.719C141.38 85.1406 141.146 84.3333 141.016 83.5781C140.885 82.8229 140.781 81.9635 140.703 81C139.167 82.6667 137.396 84.0859 135.391 85.2578C132.995 86.638 130.286 87.3281 127.266 87.3281C123.411 87.3281 120.221 86.2344 117.695 84.0469C115.195 81.8333 113.945 78.7083 113.945 74.6719C113.945 69.4375 115.964 65.6484 120 63.3047C122.214 62.0286 125.469 61.1172 129.766 60.5703L133.555 60.1016ZM186.797 58.6953C186.589 57.1068 186.055 55.6745 185.195 54.3984C183.945 52.6797 182.005 51.8203 179.375 51.8203C175.625 51.8203 173.06 53.6823 171.68 57.4062C170.951 59.3854 170.586 62.0156 170.586 65.2969C170.586 68.4219 170.951 70.9349 171.68 72.8359C173.008 76.3776 175.508 78.1484 179.18 78.1484C181.784 78.1484 183.633 77.4453 184.727 76.0391C185.82 74.6328 186.484 72.8099 186.719 70.5703H198.086C197.826 73.9557 196.602 77.1589 194.414 80.1797C190.924 85.0495 185.755 87.4844 178.906 87.4844C172.057 87.4844 167.018 85.4531 163.789 81.3906C160.56 77.3281 158.945 72.0547 158.945 65.5703C158.945 58.2526 160.729 52.5625 164.297 48.5C167.865 44.4375 172.786 42.4062 179.062 42.4062C184.401 42.4062 188.763 43.6042 192.148 46C195.56 48.3958 197.578 52.6276 198.203 58.6953H186.797ZM229.375 42.3281C232.005 42.3281 234.388 42.7839 236.523 43.6953C238.685 44.6068 240.456 46 241.836 47.875C243.008 49.4635 243.724 51.1042 243.984 52.7969C244.245 54.4635 244.375 57.1979 244.375 61V86H233.008V60.1016C233.008 57.8099 232.617 55.9609 231.836 54.5547C230.82 52.5755 228.893 51.5859 226.055 51.5859C223.112 51.5859 220.872 52.5755 219.336 54.5547C217.826 56.5078 217.07 59.3073 217.07 62.9531V86H205.977V28.6172H217.07V48.9688C218.685 46.4948 220.547 44.776 222.656 43.8125C224.792 42.8229 227.031 42.3281 229.375 42.3281ZM266.25 38.3438H254.961V28.0703H266.25V38.3438ZM254.961 43.4219H266.25V86H254.961V43.4219ZM300.664 42.4062C305.065 42.4062 308.659 43.5651 311.445 45.8828C314.258 48.1745 315.664 51.9896 315.664 57.3281V86H304.258V60.1016C304.258 57.862 303.958 56.1432 303.359 54.9453C302.266 52.7578 300.182 51.6641 297.109 51.6641C293.333 51.6641 290.742 53.2656 289.336 56.4688C288.607 58.1615 288.242 60.3229 288.242 62.9531V86H277.148V43.5H287.891V49.7109C289.323 47.5234 290.677 45.9479 291.953 44.9844C294.245 43.2656 297.148 42.4062 300.664 42.4062ZM349.453 65.2969C348.75 65.7396 348.034 66.1042 347.305 66.3906C346.602 66.651 345.625 66.8984 344.375 67.1328L341.875 67.6016C339.531 68.0182 337.852 68.526 336.836 69.125C335.117 70.1406 334.258 71.7161 334.258 73.8516C334.258 75.7526 334.779 77.1328 335.82 77.9922C336.888 78.8255 338.177 79.2422 339.688 79.2422C342.083 79.2422 344.284 78.5391 346.289 77.1328C348.32 75.7266 349.375 73.1615 349.453 69.4375V65.2969ZM342.695 60.1016C344.753 59.8411 346.224 59.5156 347.109 59.125C348.698 58.4479 349.492 57.3932 349.492 55.9609C349.492 54.2161 348.88 53.0182 347.656 52.3672C346.458 51.6901 344.688 51.3516 342.344 51.3516C339.714 51.3516 337.852 52.0026 336.758 53.3047C335.977 54.2682 335.456 55.5703 335.195 57.2109H324.453C324.688 53.487 325.729 50.4271 327.578 48.0312C330.521 44.2812 335.573 42.4062 342.734 42.4062C347.396 42.4062 351.536 43.3307 355.156 45.1797C358.776 47.0286 360.586 50.5182 360.586 55.6484V75.1797C360.586 76.5339 360.612 78.1745 360.664 80.1016C360.742 81.5599 360.964 82.5495 361.328 83.0703C361.693 83.5911 362.24 84.0208 362.969 84.3594V86H350.859C350.521 85.1406 350.286 84.3333 350.156 83.5781C350.026 82.8229 349.922 81.9635 349.844 81C348.307 82.6667 346.536 84.0859 344.531 85.2578C342.135 86.638 339.427 87.3281 336.406 87.3281C332.552 87.3281 329.362 86.2344 326.836 84.0469C324.336 81.8333 323.086 78.7083 323.086 74.6719C323.086 69.4375 325.104 65.6484 329.141 63.3047C331.354 62.0286 334.609 61.1172 338.906 60.5703L342.695 60.1016Z" fill="#EEF2FF"/>
</svg>
