<svg width="473" height="71" viewBox="0 0 473 71" fill="none" xmlns="http://www.w3.org/2000/svg">
<path d="M9 35.6562C9 32.6458 9.54167 29.6979 10.625 26.8125C11.7083 23.9271 13.2865 21.2969 15.3594 18.9219C17.4427 16.5365 19.9844 14.6406 22.9844 13.2344C25.9948 11.8177 29.4167 11.1094 33.25 11.1094C37.7812 11.1094 41.6979 12.1042 45 14.0938C48.3125 16.0833 50.776 18.6719 52.3906 21.8594L45.0469 26.9219C44.2135 25.0677 43.125 23.599 41.7812 22.5156C40.4479 21.4323 39.0156 20.6719 37.4844 20.2344C35.9635 19.7865 34.4635 19.5625 32.9844 19.5625C30.5781 19.5625 28.4844 20.0521 26.7031 21.0312C24.9219 22 23.4323 23.2708 22.2344 24.8438C21.0365 26.4062 20.1458 28.1615 19.5625 30.1094C18.9896 32.0469 18.7031 33.9844 18.7031 35.9219C18.7031 38.099 19.0469 40.1927 19.7344 42.2031C20.4323 44.2135 21.4167 45.9948 22.6875 47.5469C23.9583 49.0885 25.4844 50.3125 27.2656 51.2187C29.0469 52.1146 31 52.5625 33.125 52.5625C34.6458 52.5625 36.1927 52.3125 37.7656 51.8125C39.3385 51.3021 40.7917 50.4948 42.125 49.3906C43.4688 48.276 44.5104 46.8385 45.25 45.0781L53.0781 49.5937C52.1094 52.0417 50.526 54.1198 48.3281 55.8281C46.1406 57.5364 43.6823 58.8333 40.9531 59.7187C38.224 60.5937 35.5208 61.0312 32.8438 61.0312C29.3333 61.0312 26.1198 60.3021 23.2031 58.8437C20.2969 57.3854 17.7917 55.4427 15.6875 53.0156C13.5833 50.5885 11.9427 47.8646 10.7656 44.8438C9.58854 41.8125 9 38.75 9 35.6562V35.6562ZM58.5591 10H67.8559V48.9687C67.8559 50.625 68.132 51.7448 68.6841 52.3281C69.2361 52.901 69.9966 53.1875 70.9653 53.1875C71.7049 53.1875 72.4653 53.0989 73.2466 52.9219C74.0382 52.7344 74.7361 52.5 75.3403 52.2187L76.5903 59.2969C75.3403 59.8906 73.882 60.3489 72.2153 60.6719C70.5591 60.9948 69.0591 61.1562 67.7153 61.1562C64.7986 61.1562 62.5434 60.3854 60.9497 58.8437C59.3559 57.2917 58.5591 55.0833 58.5591 52.2187V10ZM80.6142 60.6094V24.2812H89.8954V60.6094H80.6142ZM80.6142 19.2188V10H89.8954V19.2188H80.6142ZM154.715 60.6094H145.433V40.2344C145.433 37.3594 144.933 35.2448 143.933 33.8906C142.944 32.526 141.569 31.8438 139.808 31.8438C138.006 31.8438 136.282 32.5469 134.637 33.9531C133.001 35.3594 131.84 37.1979 131.152 39.4688V60.6094H121.855V40.2344C121.855 37.3177 121.355 35.1927 120.355 33.8594C119.366 32.5156 117.996 31.8438 116.246 31.8438C114.444 31.8438 112.72 32.5365 111.074 33.9219C109.439 35.3073 108.272 37.1302 107.574 39.3906V60.6094H98.2928V24.2812H106.683V31C108.069 28.6458 109.913 26.8333 112.215 25.5625C114.527 24.2917 117.189 23.6562 120.199 23.6562C123.199 23.6562 125.543 24.3958 127.23 25.875C128.918 27.3542 129.991 29.1823 130.449 31.3594C131.928 28.8594 133.814 26.9531 136.105 25.6406C138.397 24.3177 140.975 23.6562 143.84 23.6562C146.1 23.6562 147.933 24.0625 149.34 24.875C150.756 25.6771 151.855 26.7604 152.637 28.125C153.428 29.4896 153.97 31.026 154.262 32.7344C154.564 34.4427 154.715 36.1771 154.715 37.9375V60.6094ZM160.337 49.8594C160.337 47.5052 160.994 45.4375 162.306 43.6562C163.629 41.875 165.467 40.5 167.822 39.5312C170.176 38.5625 172.879 38.0781 175.931 38.0781C177.462 38.0781 179.009 38.1927 180.572 38.4219C182.145 38.651 183.509 39.0208 184.665 39.5312V37.5938C184.665 35.2812 183.983 33.5 182.619 32.25C181.264 31 179.244 30.375 176.556 30.375C174.566 30.375 172.671 30.724 170.869 31.4219C169.066 32.1198 167.176 33.1354 165.197 34.4688L162.212 28.375C164.608 26.8021 167.066 25.625 169.587 24.8438C172.108 24.0521 174.754 23.6562 177.525 23.6562C182.702 23.6562 186.733 24.9531 189.619 27.5469C192.514 30.1302 193.962 33.8229 193.962 38.625V50.2031C193.962 51.1823 194.134 51.8802 194.478 52.2969C194.822 52.7031 195.389 52.9531 196.181 53.0469V60.6094C195.348 60.7448 194.592 60.8594 193.915 60.9531C193.249 61.0469 192.686 61.0937 192.228 61.0937C190.374 61.0937 188.973 60.6771 188.025 59.8437C187.087 59.0104 186.499 57.9948 186.259 56.7969L186.056 54.9219C184.483 56.9531 182.52 58.526 180.165 59.6406C177.811 60.7448 175.405 61.2969 172.947 61.2969C170.551 61.2969 168.389 60.8021 166.462 59.8125C164.546 58.8229 163.046 57.4635 161.962 55.7344C160.879 53.9948 160.337 52.0364 160.337 49.8594V49.8594ZM182.931 51.7344C183.441 51.1823 183.858 50.6302 184.181 50.0781C184.504 49.5156 184.665 49.0052 184.665 48.5469V44.875C183.561 44.4062 182.358 44.0469 181.056 43.7969C179.764 43.5469 178.54 43.4219 177.384 43.4219C174.988 43.4219 173.014 43.9427 171.462 44.9844C169.91 46.0156 169.134 47.3854 169.134 49.0937C169.134 50.0208 169.389 50.901 169.9 51.7344C170.41 52.5677 171.15 53.2396 172.119 53.75C173.087 54.2604 174.244 54.5156 175.587 54.5156C176.973 54.5156 178.337 54.25 179.681 53.7187C181.025 53.1771 182.108 52.5156 182.931 51.7344ZM224.051 58.7344C223.259 59.0573 222.306 59.4271 221.191 59.8437C220.087 60.2604 218.9 60.5937 217.629 60.8437C216.358 61.1042 215.077 61.2344 213.785 61.2344C212.077 61.2344 210.504 60.9375 209.066 60.3437C207.639 59.7396 206.498 58.7812 205.644 57.4687C204.79 56.1458 204.363 54.4219 204.363 52.2969V31.4219H199.582V24.2812H204.363V12.5H213.644V24.2812H221.269V31.4219H213.644V49.1719C213.696 50.4219 214.045 51.3229 214.691 51.875C215.337 52.4271 216.144 52.7031 217.113 52.7031C218.082 52.7031 219.03 52.5417 219.957 52.2187C220.884 51.8958 221.623 51.6198 222.176 51.3906L224.051 58.7344ZM245.265 61.2969C242.349 61.2969 239.713 60.8021 237.359 59.8125C235.005 58.8229 232.994 57.4635 231.328 55.7344C229.661 53.9948 228.375 52.0052 227.468 49.7656C226.573 47.5156 226.125 45.1458 226.125 42.6562C226.125 39.1875 226.901 36.0208 228.453 33.1562C230.005 30.2917 232.224 27.9948 235.109 26.2656C237.994 24.526 241.401 23.6562 245.328 23.6562C249.307 23.6562 252.703 24.526 255.515 26.2656C258.338 27.9948 260.5 30.2812 262 33.125C263.51 35.9688 264.265 39.0312 264.265 42.3125C264.265 42.8646 264.239 43.4323 264.187 44.0156C264.146 44.5885 264.099 45.0573 264.047 45.4219H235.968C236.156 47.276 236.698 48.8958 237.593 50.2812C238.5 51.6667 239.656 52.7187 241.062 53.4375C242.479 54.1562 243.994 54.5156 245.609 54.5156C247.463 54.5156 249.208 54.0677 250.843 53.1719C252.489 52.2656 253.609 51.0729 254.203 49.5937L262.172 51.8125C261.297 53.6562 260.036 55.2969 258.39 56.7344C256.755 58.1614 254.828 59.2812 252.609 60.0937C250.39 60.8958 247.942 61.2969 245.265 61.2969ZM235.765 39.5312H254.765C254.578 37.6875 254.057 36.0833 253.203 34.7188C252.349 33.3542 251.229 32.2917 249.843 31.5312C248.458 30.7604 246.906 30.375 245.187 30.375C243.531 30.375 242.021 30.7604 240.656 31.5312C239.291 32.2917 238.182 33.3542 237.328 34.7188C236.474 36.0833 235.953 37.6875 235.765 39.5312Z" fill="black"/>
<path d="M315.496 60.6094V20.5312L297.668 51.6719H294.621L276.73 20.5312V60.6094H271.887V11.3906H276.871L296.074 45.0781L315.418 11.3906H320.34V60.6094H315.496ZM346.758 61.2969C344.174 61.2969 341.773 60.8021 339.555 59.8125C337.336 58.8229 335.414 57.4635 333.789 55.7344C332.174 53.9948 330.914 51.9948 330.008 49.7344C329.112 47.4635 328.664 45.0365 328.664 42.4531C328.664 39.0781 329.435 35.9792 330.977 33.1562C332.529 30.3333 334.669 28.0781 337.398 26.3906C340.128 24.7031 343.227 23.8594 346.695 23.8594C350.247 23.8594 353.352 24.7188 356.008 26.4375C358.674 28.1458 360.768 30.401 362.289 33.2031C363.81 35.9948 364.57 39.0521 364.57 42.375C364.57 42.75 364.57 43.1094 364.57 43.4531C364.57 43.7969 364.549 44.0625 364.508 44.25H333.586C333.815 46.8333 334.539 49.1302 335.758 51.1406C336.987 53.151 338.586 54.75 340.555 55.9375C342.523 57.1146 344.659 57.7031 346.961 57.7031C349.325 57.7031 351.555 57.1042 353.648 55.9062C355.753 54.6979 357.221 53.125 358.055 51.1875L362.148 52.2969C361.409 54.0052 360.273 55.5521 358.742 56.9375C357.221 58.3229 355.43 59.3958 353.367 60.1562C351.315 60.9167 349.112 61.2969 346.758 61.2969ZM333.445 40.8438H360.133C359.956 38.2188 359.253 35.9115 358.023 33.9219C356.805 31.9323 355.211 30.375 353.242 29.25C351.273 28.1146 349.112 27.5469 346.758 27.5469C344.404 27.5469 342.253 28.1146 340.305 29.25C338.367 30.375 336.784 31.9427 335.555 33.9531C334.336 35.9635 333.633 38.2604 333.445 40.8438ZM388.841 58.875C388.476 59.0104 387.898 59.2656 387.107 59.6406C386.325 60.0052 385.377 60.3281 384.263 60.6094C383.159 60.8906 381.956 61.0312 380.654 61.0312C379.32 61.0312 378.06 60.776 376.872 60.2656C375.695 59.7552 374.758 58.9792 374.06 57.9375C373.372 56.8958 373.029 55.6146 373.029 54.0937V28.2344H368.044V24.4844H373.029V12.2812H377.747V24.4844H386.075V28.2344H377.747V52.7812C377.841 54.0729 378.315 55.0417 379.169 55.6875C380.023 56.3333 381.008 56.6562 382.122 56.6562C383.414 56.6562 384.591 56.4375 385.654 56C386.716 55.5625 387.362 55.25 387.591 55.0625L388.841 58.875ZM412.753 28.6562C409.618 28.7396 406.858 29.6146 404.472 31.2812C402.097 32.9479 400.42 35.2344 399.441 38.1406V60.6094H394.738V24.4844H399.175V33.1562C400.425 30.6146 402.076 28.5573 404.128 26.9844C406.181 25.4115 408.363 24.5312 410.675 24.3438C411.144 24.3021 411.55 24.2812 411.894 24.2812C412.238 24.2812 412.524 24.3021 412.753 24.3438V28.6562ZM419.072 60.6094V24.4844H423.775V60.6094H419.072ZM419.072 16.9375V10H423.775V16.9375H419.072ZM449.857 61.2969C447.222 61.2969 444.805 60.8021 442.607 59.8125C440.409 58.8229 438.488 57.4479 436.842 55.6875C435.206 53.9271 433.935 51.9167 433.029 49.6562C432.133 47.3958 431.685 44.9948 431.685 42.4531C431.685 39.026 432.446 35.9062 433.967 33.0938C435.498 30.2708 437.623 28.026 440.342 26.3594C443.071 24.6927 446.217 23.8594 449.779 23.8594C453.154 23.8594 456.133 24.6354 458.717 26.1875C461.31 27.7396 463.232 29.8333 464.482 32.4688L459.904 33.9219C458.883 32.0677 457.462 30.625 455.639 29.5938C453.816 28.5521 451.795 28.0312 449.576 28.0312C447.17 28.0312 444.972 28.6562 442.982 29.9062C440.993 31.1458 439.409 32.8542 438.232 35.0312C437.055 37.1979 436.467 39.6719 436.467 42.4531C436.467 45.1719 437.066 47.6406 438.264 49.8594C439.472 52.0781 441.071 53.8489 443.06 55.1719C445.05 56.4844 447.243 57.1406 449.639 57.1406C451.212 57.1406 452.727 56.8646 454.185 56.3125C455.644 55.7604 456.915 55.0104 457.998 54.0625C459.081 53.1146 459.81 52.0833 460.185 50.9687L464.826 52.3594C464.18 54.0677 463.102 55.6042 461.592 56.9687C460.092 58.3333 458.337 59.3958 456.326 60.1562C454.316 60.9167 452.159 61.2969 449.857 61.2969Z" fill="black"/>
</svg>
