<svg width="297" height="60" viewBox="0 0 297 60" fill="none" xmlns="http://www.w3.org/2000/svg">
<path d="M23.7891 14.4062C28.1901 14.4062 31.7839 15.5651 34.5703 17.8828C37.3828 20.1745 38.7891 23.9896 38.7891 29.3281V58H27.3828V32.1016C27.3828 29.862 27.0833 28.1432 26.4844 26.9453C25.3906 24.7578 23.3073 23.6641 20.2344 23.6641C16.4583 23.6641 13.8672 25.2656 12.4609 28.4688C11.7318 30.1615 11.3672 32.3229 11.3672 34.9531V58H0.273438V15.5H11.0156V21.7109C12.4479 19.5234 13.8021 17.9479 15.0781 16.9844C17.3698 15.2656 20.2734 14.4062 23.7891 14.4062ZM68.2031 50.1484C71.4583 50.1484 73.9583 48.9896 75.7031 46.6719C77.4479 44.3542 78.3203 41.0599 78.3203 36.7891C78.3203 32.5182 77.4479 29.237 75.7031 26.9453C73.9583 24.6276 71.4583 23.4688 68.2031 23.4688C64.9479 23.4688 62.4349 24.6276 60.6641 26.9453C58.9193 29.237 58.0469 32.5182 58.0469 36.7891C58.0469 41.0599 58.9193 44.3542 60.6641 46.6719C62.4349 48.9896 64.9479 50.1484 68.2031 50.1484ZM90 36.7891C90 43.0391 88.2031 48.3906 84.6094 52.8438C81.0156 57.2708 75.5599 59.4844 68.2422 59.4844C60.9245 59.4844 55.4688 57.2708 51.875 52.8438C48.2812 48.3906 46.4844 43.0391 46.4844 36.7891C46.4844 30.6432 48.2812 25.3177 51.875 20.8125C55.4688 16.3073 60.9245 14.0547 68.2422 14.0547C75.5599 14.0547 81.0156 16.3073 84.6094 20.8125C88.2031 25.3177 90 30.6432 90 36.7891ZM145.586 14.4844C147.461 14.4844 149.31 14.849 151.133 15.5781C152.956 16.3073 154.609 17.5833 156.094 19.4062C157.292 20.8906 158.099 22.7135 158.516 24.875C158.776 26.3073 158.906 28.4036 158.906 31.1641L158.828 58H147.422V30.8906C147.422 29.276 147.161 27.9479 146.641 26.9062C145.651 24.9271 143.828 23.9375 141.172 23.9375C138.099 23.9375 135.977 25.2135 134.805 27.7656C134.206 29.1198 133.906 30.7474 133.906 32.6484V58H122.695V32.6484C122.695 30.1224 122.435 28.2865 121.914 27.1406C120.977 25.0833 119.141 24.0547 116.406 24.0547C113.229 24.0547 111.094 25.0833 110 27.1406C109.401 28.3125 109.102 30.0573 109.102 32.375V58H97.8125V15.5H108.633V21.7109C110.013 19.4974 111.315 17.9219 112.539 16.9844C114.701 15.3177 117.5 14.4844 120.938 14.4844C124.193 14.4844 126.823 15.2005 128.828 16.6328C130.443 17.9609 131.667 19.6667 132.5 21.75C133.958 19.25 135.768 17.4141 137.93 16.2422C140.221 15.0703 142.773 14.4844 145.586 14.4844ZM180.625 10.3438H169.336V0.0703125H180.625V10.3438ZM169.336 15.4219H180.625V58H169.336V15.4219ZM215.039 14.4062C219.44 14.4062 223.034 15.5651 225.82 17.8828C228.633 20.1745 230.039 23.9896 230.039 29.3281V58H218.633V32.1016C218.633 29.862 218.333 28.1432 217.734 26.9453C216.641 24.7578 214.557 23.6641 211.484 23.6641C207.708 23.6641 205.117 25.2656 203.711 28.4688C202.982 30.1615 202.617 32.3229 202.617 34.9531V58H191.523V15.5H202.266V21.7109C203.698 19.5234 205.052 17.9479 206.328 16.9844C208.62 15.2656 211.523 14.4062 215.039 14.4062ZM263.828 37.2969C263.125 37.7396 262.409 38.1042 261.68 38.3906C260.977 38.651 260 38.8984 258.75 39.1328L256.25 39.6016C253.906 40.0182 252.227 40.526 251.211 41.125C249.492 42.1406 248.633 43.7161 248.633 45.8516C248.633 47.7526 249.154 49.1328 250.195 49.9922C251.263 50.8255 252.552 51.2422 254.062 51.2422C256.458 51.2422 258.659 50.5391 260.664 49.1328C262.695 47.7266 263.75 45.1615 263.828 41.4375V37.2969ZM257.07 32.1016C259.128 31.8411 260.599 31.5156 261.484 31.125C263.073 30.4479 263.867 29.3932 263.867 27.9609C263.867 26.2161 263.255 25.0182 262.031 24.3672C260.833 23.6901 259.062 23.3516 256.719 23.3516C254.089 23.3516 252.227 24.0026 251.133 25.3047C250.352 26.2682 249.831 27.5703 249.57 29.2109H238.828C239.062 25.487 240.104 22.4271 241.953 20.0312C244.896 16.2812 249.948 14.4062 257.109 14.4062C261.771 14.4062 265.911 15.3307 269.531 17.1797C273.151 19.0286 274.961 22.5182 274.961 27.6484V47.1797C274.961 48.5339 274.987 50.1745 275.039 52.1016C275.117 53.5599 275.339 54.5495 275.703 55.0703C276.068 55.5911 276.615 56.0208 277.344 56.3594V58H265.234C264.896 57.1406 264.661 56.3333 264.531 55.5781C264.401 54.8229 264.297 53.9635 264.219 53C262.682 54.6667 260.911 56.0859 258.906 57.2578C256.51 58.638 253.802 59.3281 250.781 59.3281C246.927 59.3281 243.737 58.2344 241.211 56.0469C238.711 53.8333 237.461 50.7083 237.461 46.6719C237.461 41.4375 239.479 37.6484 243.516 35.3047C245.729 34.0286 248.984 33.1172 253.281 32.5703L257.07 32.1016ZM296.25 58H285.117V0.421875H296.25V58Z" fill="url(#paint0_linear_357_2)"/>
<defs>
<linearGradient id="paint0_linear_357_2" x1="148.5" y1="-16" x2="148.5" y2="76" gradientUnits="userSpaceOnUse">
<stop offset="0.402174"/>
<stop offset="0.40625" stop-color="#4B505A"/>
<stop offset="0.671875" stop-color="#5D616A"/>
<stop offset="0.885417" stop-color="#D8D8D8"/>
<stop offset="1" stop-color="#D1E1F6" stop-opacity="0"/>
</linearGradient>
</defs>
</svg>
