<svg width="119" height="34" viewBox="0 0 119 34" fill="none" xmlns="http://www.w3.org/2000/svg">
<path d="M2.21191 5.4082H6.94336L15.542 20.4814V5.4082H19.7461V27H15.2344L6.41602 11.6631V27H2.21191V5.4082ZM30.791 24.0557C32.0117 24.0557 32.9492 23.6211 33.6035 22.752C34.2578 21.8828 34.585 20.6475 34.585 19.0459C34.585 17.4443 34.2578 16.2139 33.6035 15.3545C32.9492 14.4854 32.0117 14.0508 30.791 14.0508C29.5703 14.0508 28.6279 14.4854 27.9639 15.3545C27.3096 16.2139 26.9824 17.4443 26.9824 19.0459C26.9824 20.6475 27.3096 21.8828 27.9639 22.752C28.6279 23.6211 29.5703 24.0557 30.791 24.0557ZM38.9648 19.0459C38.9648 21.3896 38.291 23.3965 36.9434 25.0664C35.5957 26.7266 33.5498 27.5566 30.8057 27.5566C28.0615 27.5566 26.0156 26.7266 24.668 25.0664C23.3203 23.3965 22.6465 21.3896 22.6465 19.0459C22.6465 16.7412 23.3203 14.7441 24.668 13.0547C26.0156 11.3652 28.0615 10.5205 30.8057 10.5205C33.5498 10.5205 35.5957 11.3652 36.9434 13.0547C38.291 14.7441 38.9648 16.7412 38.9648 19.0459ZM59.8096 10.6816C60.5127 10.6816 61.2061 10.8184 61.8896 11.0918C62.5732 11.3652 63.1934 11.8437 63.75 12.5273C64.1992 13.084 64.502 13.7676 64.6582 14.5781C64.7559 15.1152 64.8047 15.9014 64.8047 16.9365L64.7754 27H60.498V16.834C60.498 16.2285 60.4004 15.7305 60.2051 15.3398C59.834 14.5977 59.1504 14.2266 58.1543 14.2266C57.002 14.2266 56.2061 14.7051 55.7666 15.6621C55.542 16.1699 55.4297 16.7803 55.4297 17.4932V27H51.2256V17.4932C51.2256 16.5459 51.1279 15.8574 50.9326 15.4277C50.5811 14.6562 49.8926 14.2705 48.8672 14.2705C47.6758 14.2705 46.875 14.6562 46.4648 15.4277C46.2402 15.8672 46.1279 16.5215 46.1279 17.3906V27H41.8945V11.0625H45.9521V13.3916C46.4697 12.5615 46.958 11.9707 47.417 11.6191C48.2275 10.9941 49.2773 10.6816 50.5664 10.6816C51.7871 10.6816 52.7734 10.9502 53.5254 11.4873C54.1309 11.9854 54.5898 12.625 54.9023 13.4062C55.4492 12.4688 56.1279 11.7803 56.9385 11.3408C57.7979 10.9014 58.7549 10.6816 59.8096 10.6816ZM72.9492 9.12891H68.7158V5.27637H72.9492V9.12891ZM68.7158 11.0332H72.9492V27H68.7158V11.0332ZM85.8545 10.6523C87.5049 10.6523 88.8525 11.0869 89.8975 11.9561C90.9521 12.8154 91.4795 14.2461 91.4795 16.248V27H87.2021V17.2881C87.2021 16.4482 87.0898 15.8037 86.8652 15.3545C86.4551 14.5342 85.6738 14.124 84.5215 14.124C83.1055 14.124 82.1338 14.7246 81.6064 15.9258C81.333 16.5605 81.1963 17.3711 81.1963 18.3574V27H77.0361V11.0625H81.0645V13.3916C81.6016 12.5713 82.1094 11.9805 82.5879 11.6191C83.4473 10.9746 84.5361 10.6523 85.8545 10.6523ZM104.15 19.2363C103.887 19.4023 103.618 19.5391 103.345 19.6465C103.081 19.7441 102.715 19.8369 102.246 19.9248L101.309 20.1006C100.43 20.2568 99.7998 20.4473 99.4189 20.6719C98.7744 21.0527 98.4521 21.6436 98.4521 22.4443C98.4521 23.1572 98.6475 23.6748 99.0381 23.9971C99.4385 24.3096 99.9219 24.4658 100.488 24.4658C101.387 24.4658 102.212 24.2021 102.964 23.6748C103.726 23.1475 104.121 22.1855 104.15 20.7891V19.2363ZM101.616 17.2881C102.388 17.1904 102.939 17.0684 103.271 16.9219C103.867 16.668 104.165 16.2725 104.165 15.7354C104.165 15.0811 103.936 14.6318 103.477 14.3877C103.027 14.1338 102.363 14.0068 101.484 14.0068C100.498 14.0068 99.7998 14.251 99.3896 14.7393C99.0967 15.1006 98.9014 15.5889 98.8037 16.2041H94.7754C94.8633 14.8076 95.2539 13.6602 95.9473 12.7617C97.0508 11.3555 98.9453 10.6523 101.631 10.6523C103.379 10.6523 104.932 10.999 106.289 11.6924C107.646 12.3857 108.325 13.6943 108.325 15.6182V22.9424C108.325 23.4502 108.335 24.0654 108.354 24.7881C108.384 25.335 108.467 25.7061 108.604 25.9014C108.74 26.0967 108.945 26.2578 109.219 26.3848V27H104.678C104.551 26.6777 104.463 26.375 104.414 26.0918C104.365 25.8086 104.326 25.4863 104.297 25.125C103.721 25.75 103.057 26.2822 102.305 26.7217C101.406 27.2393 100.391 27.498 99.2578 27.498C97.8125 27.498 96.6162 27.0879 95.6689 26.2676C94.7314 25.4375 94.2627 24.2656 94.2627 22.752C94.2627 20.7891 95.0195 19.3682 96.5332 18.4893C97.3633 18.0107 98.584 17.6689 100.195 17.4639L101.616 17.2881ZM116.309 27H112.134V5.4082H116.309V27Z" fill="url(#paint0_linear_348_15)"/>
<defs>
<linearGradient id="paint0_linear_348_15" x1="59.5" y1="0" x2="59.5" y2="34" gradientUnits="userSpaceOnUse">
<stop offset="0.635417" stop-color="#4B505A"/>
<stop offset="0.96875" stop-color="#D8D8D8"/>
<stop offset="1" stop-color="#D1E1F6"/>
</linearGradient>
</defs>
</svg>
